<svg width="19" height="19" fill="none" xmlns="http://www.w3.org/2000/svg"><g clip-path="url(#clip0)" fill="#fff"><path d="M16.772 6.617a.278.278 0 00.279-.279V3.65a1.03 1.03 0 00-.976-1.03C12.775 2.45 11 1.1 10.236.311A1.016 1.016 0 009.5 0c-.28 0-.542.11-.736.312-.764.79-2.538 2.14-5.84 2.307a1.03 1.03 0 00-.975 1.03v7.76a6.294 6.294 0 003.139 5.436l3.148 1.817a2.525 2.525 0 002.528 0l3.149-1.817a6.294 6.294 0 003.138-5.435V7.637a.278.278 0 00-.557 0v3.773a5.735 5.735 0 01-2.86 4.953l-3.149 1.817a1.975 1.975 0 01-1.97 0l-3.15-1.817a5.735 5.735 0 01-2.859-4.953V3.65c0-.253.197-.462.447-.475C6.445 2.998 8.343 1.547 9.163.7A.463.463 0 019.5.557c.128 0 .248.05.336.142.82.848 2.72 2.299 6.21 2.476a.474.474 0 01.448.475v2.688c0 .154.125.279.278.279z"/><path d="M3.727 7.359a.278.278 0 00-.278.278v3.773c0 1.7.915 3.285 2.388 4.136l3.15 1.818a1.03 1.03 0 001.027 0l3.149-1.818a4.79 4.79 0 002.388-4.136V4.675a.653.653 0 00-.57-.647c-2.497-.314-4.139-1.263-5.077-2.003a.651.651 0 00-.808 0c-.938.74-2.58 1.689-5.077 2.003a.653.653 0 00-.57.647v1.663a.278.278 0 10.557 0V4.675c0-.048.035-.089.083-.095 2.623-.33 4.358-1.334 5.352-2.118a.096.096 0 01.118 0c.994.784 2.729 1.788 5.353 2.118a.096.096 0 01.082.095v6.735a4.232 4.232 0 01-2.11 3.654l-3.148 1.818a.478.478 0 01-.472 0l-3.148-1.818a4.232 4.232 0 01-2.11-3.654V7.637a.278.278 0 00-.279-.278z"/><path d="M6.126 8.847a.84.84 0 01.598.248l1.455 1.454a.278.278 0 00.393 0l1.594-1.593a.278.278 0 10-.394-.394L8.376 9.958 7.118 8.701a1.393 1.393 0 00-.992-.41c-.375 0-.727.145-.992.41a1.394 1.394 0 00-.41.992c0 .375.145.728.41.992l2.25 2.25c.264.265.616.41.992.41.375 0 .727-.145.991-.41l4.499-4.499c.265-.265.411-.617.411-.992s-.146-.727-.411-.992a1.393 1.393 0 00-.992-.411c-.375 0-.727.146-.992.41l-1.191 1.192a.278.278 0 00.393.394l1.192-1.192a.84.84 0 01.598-.247.84.84 0 01.598.247.84.84 0 01.248.599.84.84 0 01-.248.598l-4.498 4.5a.84.84 0 01-.598.247.84.84 0 01-.599-.248l-2.25-2.25a.84.84 0 01-.247-.598.84.84 0 01.248-.598.84.84 0 01.598-.248z"/></g><defs><clipPath id="clip0"><path fill="#fff" d="M0 0h19v19H0z"/></clipPath></defs></svg>