<svg width="19" height="19" fill="none" xmlns="http://www.w3.org/2000/svg"><path d="M9.748 10.37a.297.297 0 00-.107-.004.708.708 0 01-.626-.703.312.312 0 00-.624 0c.001.6.402 1.125.98 1.284v.311a.312.312 0 10.624 0v-.292a1.33 1.33 0 00-.273-2.634.708.708 0 11.708-.707.312.312 0 10.623 0 1.333 1.333 0 00-1.058-1.303v-.284a.312.312 0 00-.623 0v.303a1.33 1.33 0 00.35 2.614.707.707 0 01.026 1.414z" fill="#fff"/><path d="M5.203 8.668a4.52 4.52 0 109.038 0 4.52 4.52 0 00-9.038 0zm4.52-3.896a3.896 3.896 0 110 7.792 3.896 3.896 0 010-7.792z" fill="#fff"/><path d="M15.778 13.956l-2.442 1.153a1.988 1.988 0 00-1.695-1.046l-2.254-.062a2.38 2.38 0 01-1.024-.264l-.23-.12a4.045 4.045 0 00-3.746.005l.014-.52a.312.312 0 00-.303-.32l-2.47-.068a.312.312 0 00-.32.303l-.15 5.423a.312.312 0 00.303.32l2.471.068h.009a.312.312 0 00.311-.303l.007-.26.643-.343c.252-.136.546-.168.821-.09l3.834 1.076a4.1 4.1 0 00.863.092c.6 0 1.192-.129 1.737-.379a.303.303 0 00.039-.021l5.559-3.596a.312.312 0 00.102-.415 1.574 1.574 0 00-2.08-.633zM1.79 18.146l.132-4.8 1.848.05-.132 4.8-1.848-.05zm10.087-.082a3.533 3.533 0 01-2.161.241l-3.824-1.073a1.723 1.723 0 00-1.285.14l-.328.176.088-3.191a3.426 3.426 0 013.48-.186l.23.12c.4.206.843.32 1.293.333l2.254.062a1.37 1.37 0 011.3 1.09l-3.358-.093a.312.312 0 00-.017.623l3.705.102h.009a.312.312 0 00.311-.303 1.978 1.978 0 00-.03-.405l2.504-1.183a.952.952 0 011.084.147l-5.256 3.4zM10.034 3.272V.312a.312.312 0 00-.623 0v2.96a.312.312 0 00.623 0zm2.337 0V1.87a.312.312 0 00-.623 0v1.402a.312.312 0 10.623 0zm-4.675 0V1.87a.312.312 0 00-.623 0v1.402a.312.312 0 00.623 0z" fill="#fff"/></svg>