<svg width="52" height="52" fill="none" xmlns="http://www.w3.org/2000/svg"><path d="M33.81 5.5A20.943 20.943 0 0026 4C14.402 4 5 13.402 5 25c0 3.025.64 5.901 1.791 8.5m39.184-15A20.982 20.982 0 0147 25c0 11.598-9.402 21-21 21-2.454 0-4.81-.421-7-1.195" stroke="#fff" stroke-width="2" stroke-linecap="round"/><path d="M35.045 27.903c-.545-.566-1.203-.868-1.901-.868-.692 0-1.356.296-1.924.862l-1.778 1.764c-.146-.078-.292-.151-.433-.224a7.072 7.072 0 01-.557-.297c-1.665-1.053-3.178-2.425-4.63-4.2-.703-.885-1.175-1.63-1.518-2.386.461-.42.889-.857 1.305-1.277l.472-.476c1.182-1.176 1.182-2.7 0-3.875l-1.535-1.529a21.835 21.835 0 01-.523-.532 26.455 26.455 0 00-1.058-1.042c-.546-.537-1.198-.823-1.885-.823-.686 0-1.35.286-1.912.823l-.011.011-1.913 1.921a4.09 4.09 0 00-1.22 2.604c-.136 1.636.348 3.16.72 4.156.91 2.447 2.272 4.715 4.303 7.146 2.464 2.93 5.428 5.242 8.815 6.872 1.294.61 3.02 1.333 4.95 1.456.118.005.242.011.354.011 1.3 0 2.391-.465 3.246-1.389.006-.011.017-.017.023-.028.292-.353.63-.672.984-1.014.242-.23.49-.47.732-.722.556-.577.849-1.249.849-1.938 0-.694-.298-1.36-.866-1.92l-3.089-3.086zM37.06 33.8c-.005 0-.005.005 0 0-.22.235-.444.448-.686.683a14.77 14.77 0 00-1.086 1.12c-.568.605-1.237.89-2.115.89-.084 0-.174 0-.259-.005-1.67-.106-3.223-.756-4.387-1.31-3.184-1.535-5.98-3.714-8.304-6.475-1.918-2.301-3.2-4.43-4.05-6.714-.523-1.395-.714-2.481-.63-3.506.056-.655.31-1.199.776-1.664l1.919-1.91c.275-.257.568-.397.855-.397.354 0 .64.213.821.392l.017.017c.343.32.67.65 1.012 1.002.175.18.355.359.535.544l1.536 1.529c.596.593.596 1.142 0 1.736-.164.162-.321.325-.484.481-.473.482-.923.93-1.412 1.367-.012.011-.023.017-.028.028-.484.481-.394.952-.293 1.271l.017.05c.4.964.962 1.871 1.817 2.952l.006.005c1.552 1.905 3.19 3.389 4.995 4.526.23.145.467.263.692.375.203.1.394.196.557.297.022.01.045.028.067.039.192.095.372.14.557.14.467 0 .76-.292.855-.387l1.924-1.915c.191-.19.495-.42.85-.42.348 0 .635.218.81.409l.011.011 3.1 3.086c.579.571.579 1.16.005 1.753z" fill="#fff"/><path d="M50.117 9.51h0l-.01.008a5.468 5.468 0 01-1.66.974h0l-.003.001a5.176 5.176 0 01-1.882.336 5.477 5.477 0 01-3.88-1.61 5.516 5.516 0 01-1.605-3.895c0-.637.111-1.255.298-1.818.206-.6.504-1.14.893-1.606h0l.002-.002a.642.642 0 00-.098-.903h0l-.008-.006a.675.675 0 00-.565-.12h0l-.002.001a7.884 7.884 0 00-4.144 2.784h0v.002a7.786 7.786 0 00-1.603 4.726c0 2.138.86 4.08 2.267 5.492a7.7 7.7 0 005.474 2.276c1.8 0 3.46-.628 4.789-1.667h0a7.737 7.737 0 002.736-4.29c.117-.364-.078-.724-.437-.803a.676.676 0 00-.562.12zm-2.497 3.93h0a6.386 6.386 0 01-3.99 1.392c-1.78 0-3.39-.733-4.553-1.9a6.463 6.463 0 01-1.892-4.568 6.37 6.37 0 011.33-3.929h0a6.5 6.5 0 011.77-1.59 6.572 6.572 0 00-.467 2.5c0 1.868.764 3.579 1.98 4.799a6.762 6.762 0 004.783 1.987c.822 0 1.607-.138 2.335-.414h0l.004-.002c.106-.04.213-.082.32-.125a6.76 6.76 0 01-1.62 1.85z" fill="#30CCFF" stroke="#30CCFF" stroke-width=".3"/><path d="M12.47 43.5a3.9 3.9 0 00-1.17-2.801 3.983 3.983 0 00-2.8-1.169 3.9 3.9 0 00-2.801 1.17 3.983 3.983 0 00-1.169 2.8c0 1.088.46 2.09 1.17 2.8s1.712 1.17 2.8 1.17a3.9 3.9 0 002.8-1.17 3.983 3.983 0 001.169-2.8zm-2.167 1.803a2.545 2.545 0 01-1.803.735 2.544 2.544 0 01-1.803-.735 2.545 2.545 0 01-.735-1.803c0-.701.277-1.345.735-1.803a2.545 2.545 0 011.803-.735c.701 0 1.345.276 1.803.735.458.458.735 1.102.735 1.803 0 .701-.277 1.345-.735 1.803zm5.181-2.519h-1.528a.725.725 0 00-.716.716c0 .388.328.716.716.716h1.528a.725.725 0 00.716-.716.725.725 0 00-.716-.716zM8.5 48.24a.725.725 0 00-.716.716v1.528c0 .388.328.716.716.716a.725.725 0 00.716-.716v-1.528a.725.725 0 00-.716-.716zm5.439-.298l-1.088-1.088c-.263-.287-.73-.274-1-.003a.703.703 0 000 .997l1.09 1.091a.703.703 0 00.998 0 .703.703 0 000-.997zM8.5 35.8a.725.725 0 00-.716.716v1.528c0 .388.328.716.716.716a.725.725 0 00.716-.716v-1.528A.725.725 0 008.5 35.8zm5.459 2.261a.703.703 0 00-.997 0l-1.092 1.091a.703.703 0 00-.003.994c.262.287.73.274 1 .003l1.092-1.09a.703.703 0 000-.998zM3.044 42.784H1.516A.725.725 0 00.8 43.5c0 .383.303.716.716.716h1.528a.725.725 0 00.716-.716.725.725 0 00-.716-.716zm2.089 4.07c-.263-.287-.73-.274-1-.003L3.04 47.94a.703.703 0 000 .998c.277.277.72.277.997 0l1.091-1.091a.703.703 0 00.004-.994zm-.003-7.702l-1.092-1.091a.703.703 0 00-.997 0 .703.703 0 000 .997l1.091 1.091a.702.702 0 00.997 0 .703.703 0 000-.997z" fill="#E50" stroke="#E50" stroke-width=".4"/></svg>