<svg width="47" height="47" fill="none" xmlns="http://www.w3.org/2000/svg"><path d="M12.371 15l-4.915-1.464.748-2.458 4.916 1.823-.147-5.599h2.49l-.162 5.68 4.834-1.79.748 2.474-4.996 1.481 3.222 4.411-2.018 1.53-3.027-4.688-2.93 4.574L9.1 19.493 12.37 15z" fill="#30CAFF"/><path d="M30.466 15l-4.915-1.464.749-2.458 4.915 1.823-.146-5.599h2.49l-.163 5.68 4.834-1.79.749 2.474-4.997 1.481 3.223 4.411-2.018 1.53-3.028-4.688-2.93 4.574-2.034-1.481L30.466 15zM12.371 34l-4.915-1.464.748-2.458 4.916 1.823-.147-5.599h2.49l-.162 5.68 4.834-1.79.748 2.474-4.996 1.481 3.222 4.411-2.018 1.53-3.027-4.688-2.93 4.574L9.1 38.493 12.37 34z" fill="#F85C00"/><path d="M30.466 34l-4.915-1.464.749-2.458 4.915 1.823-.146-5.599h2.49l-.163 5.68 4.834-1.79.749 2.474-4.997 1.481 3.223 4.411-2.018 1.53-3.028-4.688-2.93 4.574-2.034-1.481L30.466 34z" fill="#30CAFF"/><mask id="a" fill="#fff"><rect width="47" height="47" rx="2"/></mask><rect width="47" height="47" rx="2" stroke="#fff" stroke-width="6" mask="url(#a)"/></svg>