<svg width="75" height="23" fill="none" xmlns="http://www.w3.org/2000/svg"><g opacity=".15" fill="#fff"><rect x="3" y="7.8" width="7.4" height="3" rx="1.5" transform="rotate(90 3 7.8)" fill-opacity=".1"/><rect x="9" y="6.567" width="9.867" height="3" rx="1.5" transform="rotate(90 9 6.567)" fill-opacity=".2"/><rect x="15" y="5.333" width="12.333" height="3" rx="1.5" transform="rotate(90 15 5.333)" fill-opacity=".3"/><rect x="21" y="4.1" width="14.8" height="3" rx="1.5" transform="rotate(90 21 4.1)" fill-opacity=".4"/><rect x="27" y="2.866" width="17.267" height="3" rx="1.5" transform="rotate(90 27 2.866)" fill-opacity=".5"/><rect x="33" y="1.633" width="19.733" height="3" rx="1.5" transform="rotate(90 33 1.633)" fill-opacity=".6"/><rect x="72" y="15.2" width="7.4" height="3" rx="1.5" transform="rotate(-90 72 15.2)" fill-opacity=".1"/><rect x="66" y="16.433" width="9.867" height="3" rx="1.5" transform="rotate(-90 66 16.433)" fill-opacity=".2"/><rect x="60" y="17.667" width="12.333" height="3" rx="1.5" transform="rotate(-90 60 17.667)" fill-opacity=".3"/><rect x="54" y="18.9" width="14.8" height="3" rx="1.5" transform="rotate(-90 54 18.9)" fill-opacity=".4"/><rect x="48" y="20.133" width="17.267" height="3" rx="1.5" transform="rotate(-90 48 20.133)" fill-opacity=".5"/><rect x="42" y="21.367" width="19.733" height="3" rx="1.5" transform="rotate(-90 42 21.367)" fill-opacity=".6"/><rect x="39" y=".4" width="22.2" height="3" rx="1.5" transform="rotate(90 39 .4)"/></g></svg>