<svg width="59" height="45" fill="none" xmlns="http://www.w3.org/2000/svg"><path d="M15.785 15.43a3.628 3.628 0 00-2.191-2.97L3.84 8.3a.764.764 0 00-.764.094.751.751 0 00-.285.711l.073.47a3.607 3.607 0 002.117 2.758l.026.694c.044 1.194.646 2.181 1.57 2.575l.664.284-.054.573c-.113 1.183.247 2.07.961 2.376l4.948 2.11a.76.76 0 00.998-.396l1.417-3.323c.24-.564.336-1.185.274-1.796zm-2.473 4.621l-4.808-2.05c-.313-.135-.477-.718-.408-1.452l.027-.288 3.886 1.658c.233.1.5-.007.599-.238a.455.455 0 00-.243-.596l-4.458-1.902-.014-.005-.96-.41c-.603-.257-.982-.919-1.013-1.77l-.01-.242 5.734 2.446c.232.1.5-.007.598-.238a.456.456 0 00-.242-.596l-6.374-2.72-.199-.108a.488.488 0 00-.04-.02 2.698 2.698 0 01-1.62-2.078l-.031-.201 9.502 4.054a2.712 2.712 0 011.432 3.572l-1.358 3.184zM43.15 15.43a3.628 3.628 0 012.193-2.97l9.753-4.16a.764.764 0 01.764.094c.218.168.327.44.285.711l-.073.47a3.607 3.607 0 01-2.117 2.758l-.026.694c-.044 1.194-.645 2.181-1.57 2.575l-.664.284.055.573c.112 1.183-.248 2.07-.962 2.376l-4.948 2.11a.76.76 0 01-.997-.396l-1.418-3.323a3.656 3.656 0 01-.274-1.796zm2.474 4.621l4.808-2.05c.313-.135.478-.718.408-1.452l-.027-.288-3.886 1.658a.456.456 0 01-.599-.238.456.456 0 01.243-.596l4.458-1.902.014-.005.96-.41c.603-.257.982-.919 1.014-1.77l.008-.242-5.733 2.446a.456.456 0 01-.598-.238.456.456 0 01.242-.596l6.374-2.72.2-.108a.486.486 0 01.039-.02 2.698 2.698 0 001.62-2.078l.031-.201-9.502 4.054a2.712 2.712 0 00-1.432 3.572l1.359 3.184z" fill="#F65C01"/><path d="M48.192 5.571l.045-.145-.109-.107L43.565.822 43.43.689l-.164.094-.851.484.123.217-.123-.217c-2.055 1.169-4.07 1.747-6.076 1.747-2.006 0-4.02-.578-6.075-1.747l-.124.217.124-.217-.64-.364-.124-.07-.123.07-.64.364h0c-2.055 1.169-4.07 1.747-6.076 1.747-2.006 0-4.02-.578-6.076-1.747h0l-.85-.484-.165-.094-.135.133-4.563 4.497-.109.107.045.145 1 3.22h0a16.292 16.292 0 01-.131 10.118c-2.895 8.546 1.188 17.827 9.49 21.589l8.23 3.73.103.047.103-.047 8.23-3.73c8.302-3.762 12.385-13.043 9.49-21.59a16.292 16.292 0 01-.13-10.117l.999-3.22zM14.58 19.868l-.237-.08.237.08a19.267 19.267 0 00.154-11.963h0L14.23 6.28l1.87-1.842c4.448 2.177 8.955 2.13 13.4-.14 4.445 2.27 8.952 2.317 13.4.14l1.87 1.842-.504 1.625.239.075-.239-.075a19.267 19.267 0 00.154 11.963l.237-.08-.236.08c2.396 7.075-.981 14.763-7.864 17.882L29.5 40.948l-7.057-3.198c-6.882-3.119-10.26-10.807-7.863-17.882z" fill="#fff" stroke="#fff" stroke-width=".5"/><path d="M29.5 21l1.8 3.123 3.606-.002-1.804 3.121 1.804 3.121-3.605-.002-1.801 3.123-1.8-3.123-3.606.002 1.804-3.12-1.804-3.122 3.605.002L29.5 21z" fill="#F65C01"/><circle cx="23.177" cy="33.606" r="1.054" fill="#fff"/><circle cx="29.5" cy="36.767" r="1.054" fill="#fff"/><circle cx="35.823" cy="33.606" r="1.054" fill="#fff"/><circle cx="29.194" cy="14.5" r="3.065" fill="#30CAFF"/><circle cx="29.194" cy="14.5" r="4.903" stroke="#fff" stroke-width="1.226"/><path d="M23.065 8.984h12.87v1.226H22.452l.613-1.226z" fill="#fff"/><path d="M24.29 14.5c-3.064 0-4.29-1.226-4.29-2.452 0-1.225 1.226-2.451 3.064-2.451" stroke="#fff" stroke-width="1.226"/><path d="M26.13 18.177c-2.453 0-4.291-.613-4.291-1.838 0-1.226.613-1.839 2.451-1.839m7.968 3.677c3.064 0 4.29-.613 4.29-1.838 0-1.226-.613-1.839-1.838-1.839" stroke="#fff" stroke-width="1.226"/><path d="M34.097 14.5c3.677 0 4.903-1.226 4.903-2.452 0-1.225-1.226-2.451-3.065-2.451" stroke="#fff" stroke-width="1.226"/></svg>