<svg width="17" height="14" fill="none" xmlns="http://www.w3.org/2000/svg"><path d="M16.15 6.133H2.902l4.56-4.653a.88.88 0 000-1.226.838.838 0 00-1.203 0L.25 6.387a.872.872 0 00-.106.132c-.014.022-.024.045-.036.068-.014.027-.03.053-.042.081-.012.03-.019.06-.027.09-.007.024-.016.047-.021.072A.884.884 0 000 7v.002a.87.87 0 00.017.168c.005.026.014.05.022.075.008.03.015.059.026.087.012.03.029.057.044.085.012.022.02.043.034.064a.851.851 0 00.106.133l6.01 6.132a.838.838 0 001.203 0 .88.88 0 000-1.227l-4.56-4.652H16.15c.47 0 .85-.388.85-.867a.859.859 0 00-.85-.867z" fill="#fff"/></svg>