<svg width="17" height="14" fill="none" xmlns="http://www.w3.org/2000/svg"><path d="M.85 7.867h13.248l-4.56 4.653a.88.88 0 000 1.226.838.838 0 001.203 0l6.01-6.133a.871.871 0 00.106-.132c.014-.022.024-.045.036-.068.014-.027.03-.053.042-.081.012-.03.019-.06.027-.09.007-.024.016-.047.021-.072A.88.88 0 0017 7v-.002a.893.893 0 00-.017-.168c-.005-.026-.014-.05-.022-.075-.008-.03-.014-.059-.026-.087-.012-.03-.029-.057-.044-.085-.012-.022-.02-.043-.034-.064a.847.847 0 00-.107-.133L10.74.254a.838.838 0 00-1.202 0 .88.88 0 000 1.227l4.56 4.652H.85C.38 6.133 0 6.52 0 7s.38.867.85.867z" fill="#fff"/></svg>