<svg width="13" height="9" fill="none" xmlns="http://www.w3.org/2000/svg"><path d="M.631 6.763c.097.041.202.07.31.086l-.168.204a.3.3 0 00-.065.139l-.25 1.436a.306.306 0 00.158.313c.119.07.273.078.4.02l1.411-.652c.195.3.57.504 1 .504.293 0 .56-.094.762-.248.202.154.47.248.762.248.63 0 1.143-.437 1.143-.974v-.124a6.01 6.01 0 002.285.45c.814 0 1.62-.16 2.336-.46v.784c0 .112.068.217.18.276a.439.439 0 00.37.014l1.524-.65c.13-.054.211-.167.211-.29V3.944c0-.18-.17-.325-.38-.325H9.99l-2.686-1.12 1.02-1.243c.121-.147.08-.35-.093-.452L6.983.059c-.172-.103-.41-.067-.53.08L5.101 1.782c-.312-.14-.687-.14-.925-.052l-1.449.537c-.21.078-.386.206-.509.37L.14 5.428c-.135.181-.19.492-.08.773.096.246.3.446.572.563zm.692 1.318l.125-.718.34-.415c.147.182.345.33.578.43l-.294.357-.749.346zm2.104.083c-.21 0-.38-.145-.38-.325v-.158l.136-.166h.625v.324c0 .18-.17.325-.38.325zm1.524 0c-.21 0-.38-.145-.38-.325v-.324h.76v.324c0 .18-.17.325-.38.325zm7.287-.525l-.761.324V4.268h.761v3.37zM9.735 4.235c.052.022.11.033.167.033h.813v2.717c-.257.085-1.054.53-2.336.53-1.36 0-2.197-.513-2.496-.615a.44.44 0 00-.17-.034H3.047c-.39 0-.712-.251-.757-.573a.278.278 0 00-.001-.142c.038-.327.363-.584.758-.584h2.35c.797 0 1.545-.264 2.109-.744a.292.292 0 000-.46.429.429 0 00-.54 0 2.406 2.406 0 01-1.569.555h-.08L6.86 3.037l2.874 1.198zm-3.75-2.394l.623.372-2.221 2.705h-.93c.323-.395 2.23-2.716 2.527-3.077zM6.857.777l.624.372-.437.532-.624-.372.437-.532zM.795 5.759l2.067-2.772a.37.37 0 01.17-.124l1.43-.53a.446.446 0 01.192-.005L2.437 5.026c-.468.175-.814.545-.896.99-.07.166-.372.25-.57.166-.185-.08-.259-.267-.176-.423z" fill="#fff"/></svg>