<svg width="7" height="10" fill="none" xmlns="http://www.w3.org/2000/svg"><path d="M3.5 0A3.504 3.504 0 00.522 5.34l2.779 4.478a.292.292 0 00.248.138h.002a.292.292 0 00.248-.142l2.707-4.52A3.504 3.504 0 003.5 0zm2.506 4.994l-2.462 4.11-2.526-4.07A2.913 2.913 0 01.58 3.5 2.927 2.927 0 013.5.58 2.925 2.925 0 016.419 3.5c0 .527-.144 1.044-.413 1.494z" fill="#fff"/><path d="M3.5 2c-.965 0-1.75.785-1.75 1.75 0 .959.772 1.75 1.75 1.75.99 0 1.75-.802 1.75-1.75C5.25 2.785 4.465 2 3.5 2zm0 2.92a1.17 1.17 0 010-2.34 1.17 1.17 0 010 2.341z" fill="#fff"/></svg>