<svg width="42" height="50" fill="none" xmlns="http://www.w3.org/2000/svg"><path d="M20.542 24.085c3.31 0 6.174-1.187 8.515-3.528 2.34-2.341 3.528-5.206 3.528-8.515 0-3.308-1.187-6.173-3.528-8.515C26.716 1.187 23.85 0 20.542 0s-6.173 1.187-8.514 3.528C9.687 5.868 8.5 8.734 8.5 12.042c0 3.31 1.187 6.174 3.528 8.515 2.341 2.34 5.206 3.528 8.514 3.528zM14.1 5.599c1.796-1.796 3.903-2.669 6.442-2.669s4.646.873 6.443 2.67c1.797 1.796 2.67 3.904 2.67 6.442 0 2.539-.873 4.646-2.67 6.443-1.796 1.797-3.904 2.67-6.443 2.67-2.538 0-4.645-.874-6.442-2.67-1.797-1.796-2.67-3.904-2.67-6.443 0-2.538.873-4.646 2.67-6.443zm27.513 32.849a29.748 29.748 0 00-.405-3.16 24.85 24.85 0 00-.777-3.176 15.684 15.684 0 00-1.306-2.963 11.167 11.167 0 00-1.969-2.566c-.777-.743-1.728-1.34-2.828-1.777-1.097-.434-2.312-.653-3.611-.653-.51 0-1.004.21-1.957.83-.587.382-1.273.825-2.04 1.314-.654.418-1.542.809-2.638 1.163a10.474 10.474 0 01-3.226.521 10.48 10.48 0 01-3.227-.521c-1.095-.354-1.983-.745-2.636-1.162a248.26 248.26 0 01-2.041-1.316c-.953-.62-1.446-.83-1.957-.83-1.3 0-2.514.22-3.61.654-1.1.436-2.051 1.034-2.83 1.778a11.169 11.169 0 00-1.968 2.566 15.718 15.718 0 00-1.305 2.962 24.95 24.95 0 00-.777 3.176 29.545 29.545 0 00-.405 3.16c-.066.956-.1 1.95-.1 2.953 0 2.61.83 4.723 2.466 6.281C4.082 49.22 6.219 50 8.82 50h24.075c2.6 0 4.737-.78 6.353-2.318 1.637-1.557 2.466-3.67 2.466-6.281a42.65 42.65 0 00-.1-2.953zm-4.385 7.112c-1.068 1.016-2.485 1.51-4.334 1.51H8.82c-1.85 0-3.267-.494-4.334-1.51-1.047-.997-1.556-2.358-1.556-4.159 0-.937.03-1.862.093-2.75.06-.871.183-1.828.366-2.845.18-1.004.41-1.947.683-2.8.262-.819.62-1.629 1.063-2.41a8.28 8.28 0 011.447-1.895c.502-.482 1.135-.875 1.881-1.17.69-.274 1.466-.423 2.308-.446.102.055.285.16.581.352.603.393 1.297.84 2.064 1.33.865.552 1.98 1.05 3.312 1.48 1.361.44 2.75.664 4.128.664a13.44 13.44 0 004.128-.663c1.333-.431 2.447-.929 3.313-1.481.786-.502 1.46-.937 2.063-1.33a7.92 7.92 0 01.581-.352c.842.023 1.618.172 2.308.446.746.295 1.38.689 1.882 1.17a8.255 8.255 0 011.447 1.896c.443.78.801 1.59 1.063 2.408.273.855.503 1.797.683 2.8.183 1.02.306 1.977.366 2.847.063.885.094 1.81.094 2.75 0 1.8-.509 3.161-1.556 4.158z" fill="#fff"/></svg>