<svg className='header__navbar-link-icon-before-news' width="23" height="22"
        viewBox="0 0 23 22" fill="#fff"
        xmlns="http://www.w3.org/2000/svg">
    <path
        d="M0.673828 4.67188H5.79492V0.673828C5.79492 0.301695 6.09662 0 6.46875 0H22.3262C22.6983 0 23 0.301695 23 0.673828V18.1035C23 19.9613 21.4886 21.4727 19.6309 21.4727H3.36914C1.5114 21.4727 0 19.9613 0 18.1035V5.3457C0 4.97357 0.301695 4.67188 0.673828 4.67188ZM19.6309 20.125C20.7455 20.125 21.6523 19.2182 21.6523 18.1035V1.34766H7.14258C7.14258 19.1577 7.15107 18.1675 7.12712 18.4214C7.06855 19.0461 6.83558 19.6352 6.46718 20.125H19.6309ZM1.34766 18.1035C1.34766 19.2182 2.25449 20.125 3.36914 20.125C3.52035 20.125 3.62497 20.125 3.77344 20.125C4.88808 20.125 5.79492 19.2182 5.79492 18.1035V6.01953H1.34766V18.1035Z"/>
    <path
        d="M9.34375 3.23438H19.4062C19.7784 3.23438 20.0801 3.53607 20.0801 3.9082C20.0801 4.28034 19.7784 4.58203 19.4062 4.58203H9.34375C8.97162 4.58203 8.66992 4.28034 8.66992 3.9082C8.66992 3.53607 8.97162 3.23438 9.34375 3.23438Z"/>
    <path
        d="M9.34375 6.10938H19.4062C19.7784 6.10938 20.0801 6.41107 20.0801 6.7832C20.0801 7.15534 19.7784 7.45703 19.4062 7.45703H9.34375C8.97162 7.45703 8.66992 7.15534 8.66992 6.7832C8.66992 6.41107 8.97162 6.10938 9.34375 6.10938Z"/>
    <path
        d="M9.34375 16.8906H19.4062C19.7784 16.8906 20.0801 17.1923 20.0801 17.5645C20.0801 17.9366 19.7784 18.2383 19.4062 18.2383H9.34375C8.97162 18.2383 8.66992 17.9366 8.66992 17.5645C8.66992 17.1923 8.97162 16.8906 9.34375 16.8906Z"/>
    <path
        d="M9.34375 8.98438H14.375C14.7471 8.98438 15.0488 9.28607 15.0488 9.6582V14.6895C15.0488 15.0616 14.7471 15.3633 14.375 15.3633H9.34375C8.97162 15.3633 8.66992 15.0616 8.66992 14.6895V9.6582C8.66992 9.28607 8.97162 8.98438 9.34375 8.98438ZM10.0176 14.0156H13.7012V10.332H10.0176V14.0156Z"/>
    <path
        d="M19.4062 11.4102H17.25C16.8779 11.4102 16.5762 11.1085 16.5762 10.7363C16.5762 10.3642 16.8779 10.0625 17.25 10.0625H19.4062C19.7784 10.0625 20.0801 10.3642 20.0801 10.7363C20.0801 11.1085 19.7784 11.4102 19.4062 11.4102Z"/>
    <path
        d="M19.4062 14.2852H17.25C16.8779 14.2852 16.5762 13.9835 16.5762 13.6113C16.5762 13.2392 16.8779 12.9375 17.25 12.9375H19.4062C19.7784 12.9375 20.0801 13.2392 20.0801 13.6113C20.0801 13.9835 19.7784 14.2852 19.4062 14.2852Z"/>
</svg>