<svg width="14" height="16" fill="none" xmlns="http://www.w3.org/2000/svg"><path d="M12.566 2.41L7.343.153a1.898 1.898 0 00-1.5 0L.622 2.41A1.019 1.019 0 000 3.341v3.43a9.885 9.885 0 002.101 6.085.234.234 0 10.37-.29A9.414 9.414 0 01.468 6.772v-3.43a.55.55 0 01.338-.501L6.03.585a1.424 1.424 0 011.127 0L12.38 2.84a.55.55 0 01.338.501v1.316a.234.234 0 10.469 0V3.34a1.02 1.02 0 00-.621-.932zm.386 3.113a.234.234 0 00-.234.235v1.014a9.33 9.33 0 01-5.07 8.33l-.701.347a.802.802 0 01-.707 0l-.701-.346a9.337 9.337 0 01-2.362-1.735.234.234 0 10-.334.33 9.803 9.803 0 002.483 1.822l.003.002.703.348a1.267 1.267 0 001.123 0l.702-.348.004-.002a9.839 9.839 0 005.326-8.749V5.758a.234.234 0 00-.235-.235z" fill="#fff"/><path d="M3.172 2.67l-1.78.768a.234.234 0 00-.142.216v3.118a8.59 8.59 0 004.64 7.632c.162.068.521.3.703.285.18.016.543-.218.704-.285A8.58 8.58 0 009.03 13.22a.234.234 0 00-.31-.352 8.107 8.107 0 01-1.637 1.12l-.455.225a.078.078 0 01-.07 0l-.455-.225A8.121 8.121 0 011.72 6.772V3.808L3.358 3.1a.234.234 0 10-.186-.43zm6.321 9.774a.234.234 0 00.33-.023 8.603 8.603 0 002.113-5.65V3.654a.234.234 0 00-.141-.216L6.848 1.303a.639.639 0 00-.509 0l-2.131.92a.234.234 0 00.186.43l2.132-.92a.171.171 0 01.135 0l4.806 2.075v2.964a8.123 8.123 0 01-1.997 5.34.234.234 0 00.023.332z" fill="#fff"/><path d="M9.02 4.969a.234.234 0 00-.235.234v2.938c0 .115.083.212.195.231.017.003.035.006.354.006.156 0 .383 0 .717-.002a.234.234 0 00-.002-.47h-.001c-.236.002-.574.003-.794.003V5.203a.234.234 0 00-.234-.234zM7.103 7.91c-.33 0-.647-.135-.85-.36a.234.234 0 00-.348.316c.29.32.739.513 1.198.513.546 0 1.022-.358 1.106-.831.064-.357-.105-.826-.77-1.07a15.784 15.784 0 01-.822-.334.334.334 0 01-.136-.326c.023-.16.146-.289.328-.344.486-.146.924.206.932.212a.234.234 0 00.3-.36c-.025-.021-.633-.522-1.368-.3-.355.107-.607.385-.656.726a.803.803 0 00.39.812c.017.008.418.186.87.353.34.125.51.325.47.549-.038.215-.277.444-.644.444zM3.076 5.752a.803.803 0 00.39.812c.017.008.418.186.87.353.34.125.51.325.47.548-.038.216-.277.444-.644.444a1.16 1.16 0 01-.851-.358.234.234 0 00-.347.314c.29.322.739.513 1.198.513.546 0 1.022-.357 1.106-.83.064-.357-.105-.826-.77-1.071a15.777 15.777 0 01-.822-.333.334.334 0 01-.136-.326c.023-.16.146-.29.327-.344.487-.147.925.205.933.212a.234.234 0 00.3-.36c-.025-.021-.633-.522-1.368-.3-.356.106-.607.385-.656.726z" fill="#fff"/></svg>