<svg width="19" height="19" fill="none" xmlns="http://www.w3.org/2000/svg"><path d="M13.582 14.695a.371.371 0 100 .743.371.371 0 000-.743z" fill="#fff"/><path d="M14.496 13.495l-1.764-.587-.633-1.267c.57-.58.966-1.349 1.1-2.15l.079-.473h.675c.614 0 1.113-.5 1.113-1.114V5.566A5.573 5.573 0 009.5 0a5.563 5.563 0 00-5.566 5.566v2.338c0 .484.31.897.742 1.05v.435c0 .614.5 1.113 1.113 1.113h.326a4.026 4.026 0 00.786 1.14l-.633 1.266-1.764.587c-2.05.684-3.54 2.843-3.54 5.134 0 .205.167.371.372.371h16.328a.371.371 0 00.371-.371c0-2.29-1.488-4.45-3.54-5.134zm-.172-5.59a.372.372 0 01-.37.37h-.567a24.211 24.211 0 00.184-2.338h.753v1.967zm-9.277.37a.372.372 0 01-.371-.37V5.936h.753l.004.117v.004c.026.745.088 1.503.18 2.217h-.566zm.742 1.485a.372.372 0 01-.371-.371v-.371h.304l.08.473c.014.09.033.18.054.269H5.79zm-.37-4.565h-.73A4.821 4.821 0 019.5.742a4.83 4.83 0 014.81 4.453h-.729a3.759 3.759 0 00-3.749-3.71h-.664a3.759 3.759 0 00-3.75 3.71zm3.749-2.968h.664a3.017 3.017 0 013.008 3.02c0 .117-.001.22-.003.312v.003l-.464-.066A5.963 5.963 0 019.02 3.82a.371.371 0 00-.262-.11c-.997 0-1.95.455-2.581 1.222a3.017 3.017 0 012.99-2.705zM6.626 9.76c-.186-.618-.399-2.437-.446-3.602l.5-.666a2.612 2.612 0 011.93-1.035 6.712 6.712 0 003.657 1.774l.546.078a22.84 22.84 0 01-.218 2.268c-.034.23-.06.378-.13.792-.196 1.179-1.075 2.245-2.236 2.535a3.02 3.02 0 01-1.46 0c-.724-.181-1.39-.683-1.818-1.402h.756c.154.432.566.742 1.05.742H9.5a1.113 1.113 0 100-2.226h-.742c-.495 0-.901.319-1.05.742H6.626zm2.1 2.895a3.756 3.756 0 001.38.031l-.655.694-.724-.725zm.215 1.264l-1.177 1.245a14.144 14.144 0 01-.83-1.927l.441-.884 1.566 1.566zm2.621-1.692l.505 1.01a14.14 14.14 0 01-.831 1.927l-1.26-1.26 1.586-1.677zm-3.175-2.096a.37.37 0 01.37-.371H9.5a.372.372 0 010 .742h-.742a.372.372 0 01-.371-.371zm-6.665 8.127c.147-1.838 1.37-3.51 3.017-4.059l1.562-.52c.286.791.64 1.56 1.056 2.291l.002.004a14.86 14.86 0 001.016 1.55l.457.734h-7.11zm7.778-.331l-.503-.808a14.155 14.155 0 01-.854-1.275l1.323-1.4 1.395 1.394a14.21 14.21 0 01-.84 1.255c-.018.024.008-.014-.521.834zm.668.33l.457-.732a14.94 14.94 0 001.023-1.563l.005-.01v-.002c.411-.723.762-1.486 1.046-2.271l1.562.52c1.647.55 2.87 2.22 3.017 4.059h-7.11z" fill="#fff"/><path d="M16.163 16.756a3.71 3.71 0 00-1.05-1.275.371.371 0 10-.453.588c.35.27.64.622.839 1.019a.371.371 0 10.664-.332z" fill="#fff"/></svg>