<svg width="17" height="19" fill="none" xmlns="http://www.w3.org/2000/svg"><path d="M15.328 4.75h-1.781a.297.297 0 100 .594h1.781a.594.594 0 01.594.593v1.895a1.173 1.173 0 00-1.768-.016l-1.7-.889c.131-.386.2-.791.202-1.2v-.68a.297.297 0 10-.594 0v.68a3.287 3.287 0 01-1.554 2.782L8.5 9.745 6.492 8.509a3.287 3.287 0 01-1.554-2.781V2.664a6.084 6.084 0 001.374-.232.297.297 0 00-.164-.57 5.45 5.45 0 01-1.507.216.297.297 0 00-.297.297v.312l-1.221-.639a1.2 1.2 0 10-.277.525l1.498.784V4.75H1.672A1.188 1.188 0 00.484 5.937v1.188a.297.297 0 10.594 0V5.937a.594.594 0 01.594-.593h2.672v.384c.003.408.07.813.202 1.2l-1.7.888a1.201 1.201 0 10.277.525l1.652-.864A3.86 3.86 0 006.18 9.015l2.163 1.332a.297.297 0 00.312 0l2.163-1.332a3.861 3.861 0 001.406-1.538l1.652.865a1.181 1.181 0 002.045 1.044v4.864a.594.594 0 01-.594.594H1.672a.594.594 0 01-.594-.594v-4.156a.297.297 0 00-.594 0v4.156a1.188 1.188 0 001.188 1.187h3.676l-.594 1.188H3.008a.89.89 0 00-.89.89v.594a.297.297 0 00.296.297h8.164a.296.296 0 100-.594H2.711v-.297a.297.297 0 01.297-.297h10.984a.297.297 0 01.297.297v.297h-2.523a.297.297 0 000 .594h2.82a.297.297 0 00.297-.297v-.594a.89.89 0 00-.89-.89h-1.747l-.594-1.188h3.676a1.187 1.187 0 001.188-1.187V5.937a1.187 1.187 0 00-1.188-1.187zM1.968 2.375a.594.594 0 110-1.188.594.594 0 010 1.188zm0 6.828a.594.594 0 110-1.188.594.594 0 010 1.188zm13.063 0a.594.594 0 110-1.187.594.594 0 010 1.187zm-3.449 7.422H5.418l.594-1.188h4.976l.594 1.188z" fill="#fff"/><path d="M7.47 1.962a6.06 6.06 0 001.03-.685 6.048 6.048 0 003.563 1.387V3.86a.297.297 0 10.593 0v-.501l1.498-.783a1.202 1.202 0 10-.277-.527l-1.22.64v-.313a.297.297 0 00-.298-.297A5.452 5.452 0 018.875.816L8.69.662a.297.297 0 00-.38 0l-.185.154a5.448 5.448 0 01-.934.622.297.297 0 00.279.524zm7.561-.774a.594.594 0 110 1.188.594.594 0 010-1.188z" fill="#fff"/><path d="M7.61 7.719h1.78a.89.89 0 00.891-.89V5.046a.89.89 0 00-.594-.836v-.945a.89.89 0 00-.89-.891h-.594a.89.89 0 00-.89.89v.946a.89.89 0 00-.594.836v1.781a.89.89 0 00.89.89zm.296-4.453a.297.297 0 01.297-.297h.594a.297.297 0 01.297.297v.89H7.906v-.89zm-.593 1.78a.297.297 0 01.296-.296h1.782a.297.297 0 01.296.297v1.781a.297.297 0 01-.296.297H7.609a.297.297 0 01-.296-.297V5.047z" fill="#fff"/><path d="M8.5 6.531a.297.297 0 00.297-.297v-.593a.297.297 0 00-.594 0v.593a.297.297 0 00.297.297zm-2.969 7.422a.297.297 0 00.278-.192l.891-2.375a.297.297 0 00-.556-.208L5.53 12.81l-.612-1.633a.297.297 0 10-.557.208l.891 2.375a.297.297 0 00.278.192zm2.375-.297v-.89h.89a.89.89 0 100-1.782h-.593a.89.89 0 00-.89.891v1.781a.297.297 0 10.593 0zm0-1.781a.297.297 0 01.297-.297h.594a.297.297 0 010 .594h-.89v-.297zm2.969 1.781v-1.484l1.247 1.662a.297.297 0 00.534-.178v-2.375a.297.297 0 10-.594 0v1.485l-1.246-1.663a.297.297 0 00-.535.178v2.375a.297.297 0 00.594 0zm4.156-1.187a.891.891 0 10-1.783 0 .891.891 0 001.783 0zm-1.187 0a.297.297 0 11.594 0 .297.297 0 01-.594 0zm-10.094 0a.89.89 0 10-1.782 0 .89.89 0 001.782 0zm-1.188 0a.297.297 0 11.594 0 .297.297 0 01-.594 0z" fill="#fff"/></svg>